<!DOCTYPE svg PUBLIC "-//W3C//DTD SVG 1.1//EN" "http://www.w3.org/Graphics/SVG/1.1/DTD/svg11.dtd">
<!-- Uploaded to: SVG Repo, www.svgrepo.com, Transformed by: SVG Repo Mixer Tools -->
<svg fill="#000000" height="800px" width="800px" version="1.1" id="Layer_1" xmlns="http://www.w3.org/2000/svg" xmlns:xlink="http://www.w3.org/1999/xlink" viewBox="0 0 512.003 512.003" xml:space="preserve">
<g id="SVGRepo_bgCarrier" stroke-width="0"/>
<g id="SVGRepo_tracerCarrier" stroke-linecap="round" stroke-linejoin="round"/>
<g id="SVGRepo_iconCarrier"> <g> <g> <g> <path d="M136.533,256.003c0-24.695,7.663-48.324,21.649-68.267H9.318C3.285,209.488,0,232.358,0,256.003 c0,61.909,22.093,118.75,58.803,163.063l80.341-139.349C137.515,271.722,136.533,263.752,136.533,256.003z"/> <path d="M445.426,83.976l-72.96,145.911c1.988,8.806,3.004,17.579,3.004,26.121c0,28.39-10.01,55.441-27.964,76.8h140.851h11.853 c7.646-24.26,11.793-50.057,11.793-76.8C512.003,189.84,486.77,129.458,445.426,83.976z"/> <path d="M288.794,159.073c-0.085-0.034-0.145-0.102-0.23-0.128c-0.06-0.017-0.128-0.009-0.188-0.026 c-10.581-3.533-21.478-5.316-32.375-5.316c-28.049,0-54.246,11.196-73.779,31.514c0,0.009-0.009,0.009-0.009,0.009 c-18.449,19.191-28.612,44.365-28.612,70.878c0,7.595,0.939,15.454,2.79,23.356c7.467,31.949,29.978,58.556,60.228,71.168 c12.527,5.222,25.771,7.876,39.381,7.876c23.842,0,47.07-8.388,65.408-23.637l0.017-0.009 c23.501-19.55,36.975-48.247,36.975-78.754c0-8.141-1.084-16.572-3.226-25.071C346.65,197.115,321.826,170.243,288.794,159.073z M196.267,290.137c-4.71,0-8.533-3.823-8.533-8.533s3.823-8.533,8.533-8.533s8.533,3.823,8.533,8.533 S200.977,290.137,196.267,290.137z M256,196.27c-32.939,0-59.733,26.803-59.733,59.733c0,4.719-3.823,8.533-8.533,8.533 s-8.533-3.814-8.533-8.533c0-42.351,34.458-76.8,76.8-76.8c4.71,0,8.533,3.814,8.533,8.533S260.71,196.27,256,196.27z"/> <path d="M255.997,375.47c-8.823,0-17.519-0.956-26.01-2.85l59.93,119.859c81.937-11.716,153.284-66.654,185.865-142.609H329.879 C308.887,366.399,282.775,375.47,255.997,375.47z"/> <path d="M255.998,136.537c6.161,0,12.314,0.512,18.423,1.476L200.173,6.207C113.841,25.492,43.834,88.469,14.676,170.67h157.833 C194.985,148.628,224.493,136.537,255.998,136.537z"/> <path d="M277.356,505.54l-70.272-140.553c-27.725-12.459-49.553-35.098-61.184-62.822L70.781,432.444 C117.441,481.399,183.19,512,255.997,512c8.107,0,16.111-0.418,24.021-1.16l-2.645-5.282 C277.373,505.549,277.364,505.549,277.356,505.54z"/> <path d="M364.724,207.201l68.053-136.098c-45.995-43.989-108.262-71.1-176.777-71.1c-12.954,0-25.685,0.99-38.127,2.85 l79.514,141.158C327.809,155.242,351.736,178.111,364.724,207.201z"/> </g> </g> </g> </g>
</svg>